HIERARCHY
ROOT Hips
{
 OFFSET 0.000000 0.000000 0.000000
 CHANNELS 6 Xposition Yposition Zposition Yrotation Xrotation Zrotation
 JOINT Chest
 {
  OFFSET 0.000000 9.585900 0.002600
  CHANNELS 3 Yrotation Xrotation Zrotation
  JOINT Chest2
  {
   OFFSET 0.000000 9.601200 -0.005300
   CHANNELS 3 Yrotation Xrotation Zrotation
   JOINT Chest3
   {
    OFFSET 0.000000 9.561800 0.000000
    CHANNELS 3 Yrotation Xrotation Zrotation
    JOINT Chest4
    {
     OFFSET 0.000000 9.552100 0.000000
     CHANNELS 3 Yrotation Xrotation Zrotation
     JOINT Neck
     {
      OFFSET 0.000000 14.453000 0.000000
      CHANNELS 3 Yrotation Xrotation Zrotation
      JOINT Head
      {
       OFFSET 0.000000 8.936500 -0.011300
       CHANNELS 3 Yrotation Xrotation Zrotation
       End Site
       {
        OFFSET 0.000000 17.073600 -0.006000
       }
      }
     }
     JOINT RightCollar
     {
      OFFSET -2.921100 9.558500 0.000000
      CHANNELS 3 Yrotation Xrotation Zrotation
      JOINT RightShoulder
      {
       OFFSET -13.519700 0.000000 0.000000
       CHANNELS 3 Yrotation Xrotation Zrotation
       JOINT RightElbow
       {
        OFFSET 0.000000 -29.696600 0.000000
        CHANNELS 3 Yrotation Xrotation Zrotation
        JOINT RightWrist
        {
         OFFSET 0.000000 -24.004700 0.000000
         CHANNELS 3 Yrotation Xrotation Zrotation
         End Site
         {
          OFFSET 0.000000 -17.728500 0.000000
         }
        }
       }
      }
     }
     JOINT LeftCollar
     {
      OFFSET 2.921100 9.558500 0.000000
      CHANNELS 3 Yrotation Xrotation Zrotation
      JOINT LeftShoulder
      {
       OFFSET 13.519700 0.000000 0.000000
       CHANNELS 3 Yrotation Xrotation Zrotation
       JOINT LeftElbow
       {
        OFFSET 0.000000 -29.696600 0.000000
        CHANNELS 3 Yrotation Xrotation Zrotation
        JOINT LeftWrist
        {
         OFFSET 0.000000 -24.004700 0.000000
         CHANNELS 3 Yrotation Xrotation Zrotation
         End Site
         {
          OFFSET 0.000000 -17.728500 0.000000
         }
        }
       }
      }
     }
    }
   }
  }
 }
 JOINT RightHip
 {
  OFFSET -7.771700 -0.012900 -0.001300
  CHANNELS 3 Yrotation Xrotation Zrotation
  JOINT RightKnee
  {
   OFFSET 0.000000 -40.869800 0.001200
   CHANNELS 3 Yrotation Xrotation Zrotation
   JOINT RightAnkle
   {
    OFFSET 0.000000 -39.717900 0.002100
    CHANNELS 3 Yrotation Xrotation Zrotation
    JOINT RightToe
    {
     OFFSET 0.000000 -4.965400 11.033500
     CHANNELS 3 Yrotation Xrotation Zrotation
     End Site
     {
      OFFSET 0.000000 -1.423100 5.872300
     }
    }
   }
  }
 }
 JOINT LeftHip
 {
  OFFSET 7.771700 -0.012900 -0.001300
  CHANNELS 3 Yrotation Xrotation Zrotation
  JOINT LeftKnee
  {
   OFFSET 0.000000 -40.869800 0.001200
   CHANNELS 3 Yrotation Xrotation Zrotation
   JOINT LeftAnkle
   {
    OFFSET 0.000000 -39.717900 0.002100
    CHANNELS 3 Yrotation Xrotation Zrotation
    JOINT LeftToe
    {
     OFFSET 0.000000 -4.965400 11.033500
     CHANNELS 3 Yrotation Xrotation Zrotation
     End Site
     {
      OFFSET 0.000000 -1.423100 5.872300
     }
    }
   }
  }
 }
}
MOTION
Frames: 8
Frame Time: 0.008333
-120.122483 49.346932 19.726587 176.382021 -31.466910 -3.987727 0.815769 19.001843 2.547441 0.071902 2.251286 0.235668 0.123726 3.712283 0.390550 0.768677 16.508609 1.844048 3.627568 17.341215 -3.361108 7.826858 -3.226601 -7.410812 -1.969421 -3.520003 -3.784545 3.455991 -10.085185 -12.771121 -38.127749 -40.924391 89.823859 1.699725 0.033192 -8.115238 -0.608598 -2.644343 2.807755 -6.932947 -6.273289 14.532937 65.360759 -61.848155 -105.092256 7.571130 9.605794 10.659338 -8.606385 -52.519476 -4.891817 -158.276363 83.214695 -145.227800 -30.305760 -4.216966 -4.896965 -0.036587 -13.002615 -0.219166 -13.896517 -55.011721 19.633817 -74.118137 65.323761 -79.225493 30.775116 6.775118 15.969530 0.004817 -0.547004 0.005166
-120.124130 49.345334 19.728515 176.389606 -31.457207 -3.987480 0.809140 19.000613 2.544406 0.072225 2.252767 0.236136 0.124060 3.714917 0.391231 0.771187 16.511240 1.844026 3.638515 17.336356 -3.350961 7.877285 -3.238409 -7.378054 -1.973207 -3.535184 -3.785283 3.466289 -10.096151 -12.773335 -38.116376 -40.919759 89.816227 1.700461 0.019106 -8.094188 -0.617227 -2.660143 2.812348 -6.929959 -6.265251 14.543329 65.456538 -61.953065 -105.162125 7.564663 9.570215 10.629970 -8.634419 -52.532438 -4.887136 -158.475161 83.225729 -145.433826 -30.303737 -4.216783 -4.913405 -0.039970 -13.005740 -0.214196 -13.903179 -55.020825 19.633109 -74.097837 65.318946 -79.205445 30.777736 6.784130 15.969262 0.004218 -0.547449 0.006755
-120.125219 49.344649 19.730182 176.386924 -31.454324 -3.983353 0.815908 19.011950 2.544198 0.072627 2.254627 0.236340 0.123268 3.708670 0.392162 0.771744 16.514993 1.844373 3.649778 17.331638 -3.341392 7.895830 -3.242046 -7.361746 -1.974925 -3.556370 -3.788166 3.468510 -10.095032 -12.772002 -38.100506 -40.919893 89.806907 1.701504 0.004781 -8.073529 -0.626579 -2.675409 2.815703 -6.929006 -6.255577 14.555129 65.549914 -62.067758 -105.226423 7.556031 9.540034 10.581383 -8.664106 -52.541129 -4.873269 -158.689514 83.240033 -145.661062 -30.314474 -4.211141 -4.924030 -0.032684 -13.012959 -0.216634 -13.900380 -55.024067 19.633311 -74.092675 65.316378 -79.200835 30.774072 6.786223 15.963932 0.007747 -0.545861 0.011104
-120.124951 49.344752 19.732082 176.380420 -31.455192 -3.982982 0.823046 19.014680 2.547173 0.072722 2.254908 0.236431 0.124824 3.718067 0.391586 0.772936 16.509833 1.846777 3.677165 17.345409 -3.320564 7.901867 -3.249745 -7.353582 -1.975459 -3.569707 -3.791876 3.471435 -10.093931 -12.770585 -38.079835 -40.924002 89.799184 1.699746 -0.008715 -8.064518 -0.633889 -2.682731 2.824132 -6.925598 -6.251013 14.554262 65.622401 -62.191789 -105.272086 7.544595 9.520080 10.515823 -8.672383 -52.541917 -4.862036 -158.806182 83.253209 -145.778546 -30.328054 -4.206391 -4.935015 -0.018581 -13.016016 -0.216531 -13.899572 -55.021501 19.641022 -74.089106 65.313053 -79.197823 30.773851 6.783799 15.960342 0.007587 -0.542079 0.012981
-120.124188 49.345199 19.734734 176.372243 -31.455168 -3.982241 0.835517 19.020101 2.554322 0.073028 2.256052 0.236845 0.125348 3.719877 0.392171 0.771236 16.506874 1.846389 3.678025 17.342268 -3.318971 7.929509 -3.237550 -7.332422 -1.978799 -3.587647 -3.795286 3.497382 -10.105346 -12.778608 -38.092757 -40.903525 89.786950 1.700281 -0.002324 -8.055524 -0.639229 -2.690168 2.849107 -6.923609 -6.246995 14.536865 65.693834 -62.314803 -105.320787 7.527410 9.511704 10.442168 -8.673596 -52.544012 -4.852663 -158.947435 83.269891 -145.921276 -30.337653 -4.193216 -4.945168 -0.025578 -13.022581 -0.212380 -13.899471 -55.023332 19.647538 -74.094211 65.313150 -79.202624 30.780664 6.785854 15.959377 0.001165 -0.545004 0.011539
-120.121887 49.345161 19.739581 176.344778 -31.445148 -3.978919 0.856933 19.018740 2.560816 0.077115 2.251772 0.238299 0.123036 3.728366 0.391095 0.776821 16.511759 1.847290 3.690571 17.335896 -3.308228 7.945454 -3.230260 -7.317936 -1.978279 -3.609488 -3.793504 3.500565 -10.108244 -12.780205 -38.090956 -40.900913 89.793393 1.698767 -0.002879 -8.064266 -0.638718 -2.712484 2.865377 -6.929590 -6.222401 14.569126 65.832692 -62.409346 -105.438313 7.503077 9.515185 10.366595 -8.668935 -52.555819 -4.830692 -159.082133 83.297157 -146.048393 -30.363439 -4.174927 -4.969017 -0.021736 -13.031086 -0.205123 -13.897728 -55.031477 19.671221 -74.089527 65.316480 -79.197479 30.788717 6.784551 15.962364 -0.009413 -0.544792 0.006176
-120.119656 49.345769 19.744092 176.338679 -31.437991 -3.984200 0.859660 19.015824 2.566861 0.078623 2.253020 0.237710 0.122702 3.728924 0.392003 0.779950 16.513831 1.848065 3.702566 17.339127 -3.299975 7.960498 -3.217781 -7.305917 -1.976358 -3.618637 -3.794142 3.501288 -10.112871 -12.782227 -38.100977 -40.891901 89.808388 1.700352 0.000402 -8.065865 -0.636800 -2.726276 2.881262 -6.934264 -6.208650 14.577329 65.936412 -62.519669 -105.519040 7.475044 9.528681 10.289891 -8.675619 -52.561283 -4.810248 -159.052333 83.304631 -146.016284 -30.362458 -4.169083 -4.975047 -0.013095 -13.031372 -0.207498 -13.908413 -55.036662 19.689175 -74.073415 65.323549 -79.177753 30.786978 6.792833 15.961953 -0.008115 -0.545538 0.001519
-120.117652 49.347405 19.747235 176.335734 -31.440317 -3.988120 0.858204 19.020899 2.569193 0.077282 2.257840 0.238015 0.125985 3.724475 0.392369 0.781609 16.514406 1.848554 3.715410 17.352178 -3.291713 7.972246 -3.207380 -7.297469 -1.973779 -3.623672 -3.800864 3.502559 -10.131314 -12.780270 -38.095328 -40.868498 89.807449 1.704529 -0.000564 -8.061892 -0.633480 -2.737459 2.900032 -6.936483 -6.192606 14.583837 66.047835 -62.631003 -105.611275 7.446746 9.544507 10.212310 -8.675511 -52.555274 -4.800779 -159.006872 83.309034 -145.967542 -30.356669 -4.168199 -4.973887 -0.009703 -13.029180 -0.213148 -13.912731 -55.033224 19.697865 -74.067405 65.326142 -79.169226 30.787734 6.796728 15.961808 -0.009953 -0.546904 -0.000728
